<svg width="248" height="248" viewBox="0 0 248 248" fill="none" xmlns="http://www.w3.org/2000/svg">
<path d="M124.04 43.2422C90.3189 43.2422 80.4568 43.277 78.5398 43.436C71.6197 44.0112 67.3136 45.1008 62.6223 47.4365C59.007 49.2317 56.1557 51.3127 53.3417 54.2299C48.2169 59.5498 45.1109 66.0946 43.9865 73.8745C43.4399 77.6513 43.2809 78.4216 43.2486 97.7134C43.2361 104.144 43.2486 112.607 43.2486 123.959C43.2486 157.652 43.2858 167.504 43.4473 169.418C44.0064 176.151 45.0624 180.388 47.2987 185.022C51.5726 193.893 59.735 200.552 69.3511 203.037C72.6807 203.894 76.3582 204.366 81.0792 204.59C83.0795 204.677 103.467 204.739 123.867 204.739C144.267 204.739 164.667 204.714 166.618 204.615C172.084 204.357 175.258 203.931 178.768 203.024C188.446 200.527 196.46 193.967 200.82 184.972C203.013 180.45 204.125 176.052 204.628 169.67C204.738 168.278 204.784 146.093 204.784 123.938C204.784 101.778 204.734 79.6342 204.625 78.2427C204.115 71.7574 203.003 67.3967 200.74 62.7874C198.882 59.0143 196.82 56.1966 193.826 53.3155C188.482 48.2117 181.947 45.1058 174.16 43.9826C170.387 43.4372 169.635 43.2757 150.329 43.2422H124.04Z" fill="url(#paint0_radial_19_166)"/>
<path d="M124.04 43.2422C90.3189 43.2422 80.4568 43.277 78.5398 43.436C71.6197 44.0112 67.3136 45.1008 62.6223 47.4365C59.007 49.2317 56.1557 51.3127 53.3417 54.2299C48.2169 59.5498 45.1109 66.0946 43.9865 73.8745C43.4399 77.6513 43.2809 78.4216 43.2486 97.7134C43.2361 104.144 43.2486 112.607 43.2486 123.959C43.2486 157.652 43.2858 167.504 43.4473 169.418C44.0064 176.151 45.0624 180.388 47.2987 185.022C51.5726 193.893 59.735 200.552 69.3511 203.037C72.6807 203.894 76.3582 204.366 81.0792 204.59C83.0795 204.677 103.467 204.739 123.867 204.739C144.267 204.739 164.667 204.714 166.618 204.615C172.084 204.357 175.258 203.931 178.768 203.024C188.446 200.527 196.46 193.967 200.82 184.972C203.013 180.45 204.125 176.052 204.628 169.67C204.738 168.278 204.784 146.093 204.784 123.938C204.784 101.778 204.734 79.6342 204.625 78.2427C204.115 71.7574 203.003 67.3967 200.74 62.7874C198.882 59.0143 196.82 56.1966 193.826 53.3155C188.482 48.2117 181.947 45.1058 174.16 43.9826C170.387 43.4372 169.635 43.2757 150.329 43.2422H124.04Z" fill="url(#paint1_radial_19_166)"/>
<path d="M124.002 64.3628C107.807 64.3628 105.774 64.4336 99.4131 64.7231C93.0645 65.0138 88.7311 66.0189 84.9393 67.4936C81.0171 69.0168 77.69 71.0543 74.3753 74.3702C71.0581 77.6849 69.0206 81.012 67.4925 84.933C66.014 88.726 65.0077 93.0607 64.722 99.4068C64.4375 105.768 64.3629 107.802 64.3629 123.997C64.3629 140.193 64.435 142.219 64.7232 148.58C65.0152 154.929 66.0203 159.262 67.4937 163.054C69.0181 166.976 71.0557 170.304 74.3716 173.618C77.685 176.935 81.0121 178.978 84.9319 180.501C88.7261 181.976 93.0608 182.981 99.4082 183.272C105.769 183.561 107.8 183.632 123.995 183.632C140.192 183.632 142.218 183.561 148.579 183.272C154.928 182.981 159.266 181.976 163.061 180.501C166.982 178.978 170.304 176.935 173.617 173.618C176.934 170.304 178.972 166.976 180.5 163.056C181.966 159.262 182.972 154.928 183.271 148.582C183.556 142.221 183.631 140.193 183.631 123.997C183.631 107.802 183.556 105.769 183.271 99.408C182.972 93.0594 181.966 88.726 180.5 84.9342C178.972 81.012 176.934 77.6849 173.617 74.3702C170.3 71.053 166.983 69.0155 163.057 67.4936C159.255 66.0189 154.919 65.0138 148.571 64.7231C142.21 64.4336 140.185 64.3628 123.984 64.3628H124.002ZM118.653 75.1094C120.241 75.107 122.012 75.1094 124.002 75.1094C139.925 75.1094 141.812 75.1666 148.1 75.4523C153.914 75.7182 157.07 76.6898 159.172 77.506C161.955 78.5869 163.939 79.879 166.025 81.9662C168.112 84.0534 169.404 86.0412 170.488 88.8241C171.304 90.9238 172.277 94.0794 172.541 99.8938C172.827 106.18 172.889 108.069 172.889 123.984C172.889 139.899 172.827 141.787 172.541 148.074C172.275 153.888 171.304 157.044 170.488 159.143C169.407 161.926 168.112 163.908 166.025 165.994C163.938 168.081 161.956 169.373 159.172 170.454C157.072 171.274 153.914 172.243 148.1 172.509C141.813 172.795 139.925 172.857 124.002 172.857C108.079 172.857 106.192 172.795 99.9051 172.509C94.0907 172.24 90.9351 171.269 88.8317 170.453C86.0488 169.372 84.061 168.08 81.9737 165.993C79.8865 163.905 78.5945 161.922 77.5111 159.138C76.6948 157.039 75.7221 153.883 75.4574 148.069C75.1717 141.782 75.1145 139.894 75.1145 123.969C75.1145 108.044 75.1717 106.165 75.4574 99.8789C75.7233 94.0645 76.6948 90.9089 77.5111 88.8067C78.592 86.0238 79.8865 84.036 81.9737 81.9488C84.061 79.8616 86.0488 78.5695 88.8317 77.4861C90.9338 76.6661 94.0907 75.6971 99.9051 75.43C105.406 75.1815 107.538 75.107 118.653 75.0945V75.1094ZM155.835 85.0113C151.884 85.0113 148.679 88.2129 148.679 92.1649C148.679 96.1157 151.884 99.3211 155.835 99.3211C159.786 99.3211 162.991 96.1157 162.991 92.1649C162.991 88.2141 159.786 85.0088 155.835 85.0088V85.0113ZM124.002 93.3725C107.09 93.3725 93.3776 107.085 93.3776 123.997C93.3776 140.91 107.09 154.616 124.002 154.616C140.915 154.616 154.622 140.91 154.622 123.997C154.622 107.085 140.915 93.3725 124.002 93.3725ZM124.002 104.119C134.98 104.119 143.881 113.018 143.881 123.997C143.881 134.975 134.98 143.876 124.002 143.876C113.023 143.876 104.124 134.975 104.124 123.997C104.124 113.018 113.023 104.119 124.002 104.119Z" fill="white"/>
<defs>
<radialGradient id="paint0_radial_19_166" cx="0" cy="0" r="1" gradientUnits="userSpaceOnUse" gradientTransform="translate(86.1525 217.177) rotate(-90) scale(160.055 148.904)">
<stop stop-color="#FFDD55"/>
<stop offset="0.1" stop-color="#FFDD55"/>
<stop offset="0.5" stop-color="#FF543E"/>
<stop offset="1" stop-color="#C837AB"/>
</radialGradient>
<radialGradient id="paint1_radial_19_166" cx="0" cy="0" r="1" gradientUnits="userSpaceOnUse" gradientTransform="translate(16.1841 54.8761) rotate(78.6776) scale(71.546 294.99)">
<stop stop-color="#3771C8"/>
<stop offset="0.128" stop-color="#3771C8"/>
<stop offset="1" stop-color="#6600FF" stop-opacity="0"/>
</radialGradient>
</defs>
</svg>
