<svg width="248" height="248" viewBox="0 0 248 248" fill="none" xmlns="http://www.w3.org/2000/svg">
<g clip-path="url(#clip0_19_158)">
<path d="M124 206C169.287 206 206 169.287 206 124C206 78.7127 169.287 42 124 42C78.7127 42 42 78.7127 42 124C42 169.287 78.7127 206 124 206Z" fill="#34AADF"/>
<path d="M76.1274 123.289C76.1274 123.289 117.127 106.463 131.347 100.538C136.798 98.1679 155.283 90.5839 155.283 90.5839C155.283 90.5839 163.815 87.2661 163.104 95.3238C162.867 98.6418 160.971 110.254 159.075 122.815C156.231 140.59 153.15 160.023 153.15 160.023C153.15 160.023 152.676 165.474 148.648 166.422C144.619 167.37 137.983 163.104 136.798 162.156C135.85 161.445 119.023 150.78 112.861 145.566C111.202 144.145 109.307 141.301 113.098 137.983C121.63 130.162 131.821 120.445 137.983 114.283C140.827 111.439 143.67 104.804 131.821 112.861C114.994 124.474 98.4048 135.376 98.4048 135.376C98.4048 135.376 94.6128 137.746 87.5031 135.613C80.393 133.48 72.0982 130.636 72.0982 130.636C72.0982 130.636 66.4107 127.081 76.1274 123.289Z" fill="white"/>
</g>
<defs>
<clipPath id="clip0_19_158">
<rect width="164" height="164" fill="white" transform="translate(42 42)"/>
</clipPath>
</defs>
</svg>
