<svg width="248" height="248" viewBox="0 0 248 248" fill="none" xmlns="http://www.w3.org/2000/svg">
<path d="M204.467 81.49C204.591 83.2877 204.591 85.0854 204.591 86.8997C204.591 142.181 162.599 205.937 85.8147 205.937V205.904C63.1324 205.937 40.9214 199.425 21.8266 187.148C25.1248 187.546 28.4395 187.745 31.7625 187.753C50.5597 187.769 68.8195 181.449 83.6076 169.809C65.7445 169.469 50.0802 157.797 44.608 140.756C50.8655 141.965 57.3131 141.717 63.4548 140.035C43.9798 136.092 29.9687 118.943 29.9687 99.0279V98.4977C35.7716 101.737 42.2687 103.535 48.9147 103.733C30.5722 91.4478 24.9181 66.9925 35.9947 47.8723C57.1891 74.0093 88.4599 89.8986 122.029 91.5803C118.664 77.0496 123.26 61.823 134.105 51.6085C150.919 35.7689 177.362 36.5807 193.167 53.4228C202.516 51.5753 211.476 48.1374 219.676 43.2662C216.56 52.9505 210.038 61.1769 201.326 66.4043C209.6 65.4267 217.684 63.2065 225.297 59.8182C219.693 68.2351 212.634 75.5667 204.467 81.49Z" fill="#1D9BF0"/>
</svg>
